<?xml version="1.0" encoding="UTF-8" standalone="no"?>
<!-- Created with Inkscape (http://www.inkscape.org/) -->

<svg
   xmlns:dc="http://purl.org/dc/elements/1.1/"
   xmlns:cc="http://creativecommons.org/ns#"
   xmlns:rdf="http://www.w3.org/1999/02/22-rdf-syntax-ns#"
   xmlns:svg="http://www.w3.org/2000/svg"
   xmlns="http://www.w3.org/2000/svg"
   xmlns:sodipodi="http://sodipodi.sourceforge.net/DTD/sodipodi-0.dtd"
   xmlns:inkscape="http://www.inkscape.org/namespaces/inkscape"
   width="138.3192mm"
   height="59.419735mm"
   viewBox="0 0 138.3192 59.419735"
   version="1.1"
   id="svg8"
   sodipodi:docname="jwlogo2.svg"
   inkscape:version="0.92.4 (5da689c313, 2019-01-14)">
  <defs
     id="defs2" />
  <sodipodi:namedview
     id="base"
     pagecolor="#ffffff"
     bordercolor="#666666"
     borderopacity="1.0"
     inkscape:pageopacity="0.0"
     inkscape:pageshadow="2"
     inkscape:zoom="1"
     inkscape:cx="-33.583633"
     inkscape:cy="-44.042518"
     inkscape:document-units="mm"
     inkscape:current-layer="text3723"
     showgrid="false"
     inkscape:window-width="1920"
     inkscape:window-height="1001"
     inkscape:window-x="2091"
     inkscape:window-y="-9"
     inkscape:window-maximized="1" />
  <metadata
     id="metadata5">
    <rdf:RDF>
      <cc:Work
         rdf:about="">
        <dc:format>image/svg+xml</dc:format>
        <dc:type
           rdf:resource="http://purl.org/dc/dcmitype/StillImage" />
        <dc:title></dc:title>
      </cc:Work>
    </rdf:RDF>
  </metadata>
  <g
     id="g3729"
     inkscape:groupmode="layer"
     inkscape:label="Layer 1 copy"
     style="display:inline"
     transform="translate(-37.317474,-10.599898)">
    <g
       id="g5054">
      <g
         id="g5037">
        <g
           aria-label="&lt;JW&gt;"
           style="font-style:normal;font-weight:normal;font-size:50.79999924px;line-height:1.25;font-family:sans-serif;letter-spacing:0px;word-spacing:0px;fill:#000000;fill-opacity:1;stroke:none;stroke-width:0.26458332"
           id="text3715"
           transform="translate(6.879167)">
          <path
             d="m 53.845665,27.748206 q -2.108399,2.058789 -6.523633,5.953125 1.860351,1.810742 5.779492,5.233789 1.240234,0.992187 1.240234,2.232422 0,1.190625 -0.967382,2.108398 -0.942579,0.892969 -2.257227,0.892969 -1.389062,0 -3.472656,-1.761133 l -2.877344,-2.778125 q -2.306836,-2.207617 -4.415234,-2.951758 -2.505274,-0.868164 -2.505274,-2.75332 0,-1.711523 2.232422,-2.678906 2.232422,-0.992188 4.960938,-3.621485 3.720703,-3.621484 4.489648,-4.191992 1.016992,-0.768945 2.133203,-0.768945 1.314649,0 2.257227,0.892969 0.967383,0.892968 0.967383,2.083593 0,1.165821 -1.041797,2.108399 z"
             style="font-style:normal;font-variant:normal;font-weight:bold;font-stretch:normal;font-family:'Comic Sans MS';-inkscape-font-specification:'Comic Sans MS Bold';stroke-width:0.26458332"
             id="path831"
             inkscape:connector-curvature="0" />
          <path
             d="m 92.640195,18.520862 q -0.446485,0 -1.413868,-0.07441 -0.967382,-0.09922 -1.562695,-0.09922 h -1.934765 q -0.02481,-0.421679 -0.02481,1.761133 0,17.760156 -2.505274,25.871289 -1.835546,5.97793 -6.67246,5.97793 -4.613672,0 -9.128125,-3.175 -5.109766,-3.547071 -5.109766,-8.334375 0,-3.869531 3.497461,-3.869531 3.497461,0 3.497461,3.819921 0,1.463477 2.505273,3.150196 2.530079,1.661914 4.737696,1.661914 0.892968,0 1.289843,-3.299024 0.09922,-0.79375 0.545704,-7.714257 0.37207,-5.655469 0.37207,-14.089063 0,-0.347265 -0.07441,-1.612304 l -0.570508,0.0248 q -1.091406,0.04961 -2.926953,-0.0248 -2.207617,-0.09922 -2.926953,-0.09922 -1.463477,0 -2.480469,-0.892969 -1.091406,-0.967383 -1.091406,-2.505273 0,-3.373438 4.440039,-3.373438 0.843359,0 2.505273,0.07441 1.661914,0.04961 2.480469,0.04961 1.562695,0 4.663281,-0.173633 3.125391,-0.173633 4.688086,-0.173633 6.647656,0 6.647656,3.695898 0,1.289844 -0.892969,2.306836 -1.016992,1.116211 -2.554882,1.116211 z"
             style="font-style:normal;font-variant:normal;font-weight:bold;font-stretch:normal;font-family:'Comic Sans MS';-inkscape-font-specification:'Comic Sans MS Bold';stroke-width:0.26458332"
             id="path833"
             inkscape:connector-curvature="0" />
          <path
             d="m 136.04006,17.685771 q -0.42168,1.016993 -0.99219,2.505274 -0.42168,1.438672 -1.36426,4.266406 -1.41387,3.646289 -4.48965,10.616406 -3.15019,7.094141 -4.51445,10.591602 -1.01699,2.604492 -1.90996,4.167187 -1.16582,2.058789 -3.54707,2.058789 -1.41387,0 -2.55489,-0.768945 -1.33945,-0.892969 -1.43867,-2.356446 -1.14101,-2.852539 -1.43867,-4.663281 -1.09141,-5.308203 -3.02617,-15.949414 -1.61231,4.985743 -3.47266,8.954493 -2.77812,5.953124 -3.64629,9.351367 0.22325,0.545703 0.22325,1.16582 0,1.53789 -1.36426,2.505273 -1.19063,0.818555 -2.629297,0.818555 -1.810731,0 -3.001355,-0.917774 -1.289831,-1.016992 -1.339441,-2.778124 L 94.76509,44.35081 Q 93.946536,40.481279 92.086195,32.791826 90.449097,26.913115 86.60438,16.048662 q -0.223242,-0.620117 -0.223242,-1.240234 0,-1.488281 1.141015,-2.356446 1.016993,-0.793749 2.455654,-0.793749 1.885151,0 3.001355,1.587499 0.620117,0.868165 1.413861,3.150196 2.430848,6.994922 5.4818,20.389453 1.984377,-4.836914 4.043167,-11.410157 1.66191,-5.357812 2.70371,-7.615038 2.48047,-5.407422 5.06015,-5.407422 2.43086,0 3.54707,2.654101 0.54571,1.265039 1.0666,4.588867 0.14883,1.016993 0.64493,4.985743 0.52089,4.266406 3.12539,15.527734 2.62929,-6.151563 7.06933,-17.735352 0.27285,-0.694531 1.28985,-4.564062 0.71933,-2.778125 1.81074,-4.39043 1.19062,-1.736328 3.175,-1.736328 1.51308,0 2.50527,0.942578 0.99219,0.917774 0.99219,2.38125 0,0.520899 -0.86816,2.678906 z"
             style="font-style:normal;font-variant:normal;font-weight:bold;font-stretch:normal;font-family:'Comic Sans MS';-inkscape-font-specification:'Comic Sans MS Bold';stroke-width:0.26458332"
             id="path835"
             inkscape:connector-curvature="0" />
          <path
             d="m 157.4382,34.842346 q -5.97793,5.134571 -12.50157,8.979297 -0.91777,0.545703 -1.83554,0.545703 -1.33946,0 -2.28204,-0.917773 -0.91777,-0.917774 -0.91777,-2.108399 0,-1.364257 1.33945,-2.33164 2.90215,-1.95957 8.60723,-6.002734 -2.85254,-2.058789 -5.48184,-4.564063 -3.32382,-3.12539 -3.32382,-4.390429 0,-1.21543 0.99218,-2.083594 1.017,-0.892969 2.30684,-0.892969 1.33945,0 2.40605,1.091406 5.55625,5.705078 9.94668,7.813477 2.00918,0.967383 2.00918,2.554883 0,1.215429 -1.26503,2.306835 z"
             style="font-style:normal;font-variant:normal;font-weight:bold;font-stretch:normal;font-family:'Comic Sans MS';-inkscape-font-specification:'Comic Sans MS Bold';stroke-width:0.26458332"
             id="path837"
             inkscape:connector-curvature="0" />
        </g>
        <g
           aria-label="Development"
           transform="scale(1.0280972,0.97267067)"
           style="font-style:normal;font-weight:normal;font-size:13.37819481px;line-height:1.25;font-family:sans-serif;letter-spacing:0px;word-spacing:0px;fill:#000000;fill-opacity:1;stroke:none;stroke-width:0.25084114"
           id="text3719">
          <path
             d="m 42.701706,66.01906 q -0.616651,-0.01045 -1.03472,-0.418068 -0.418069,-0.418069 -0.418069,-1.003365 0,-1.045172 0.09407,-3.135515 0.104517,-2.090343 0.104517,-3.135514 0,-1.160141 -0.05226,-3.480421 -0.04181,-2.320281 -0.04181,-3.480422 0,-0.574844 0.55394,-1.139237 0.553941,-0.574844 1.181044,-0.574844 0.344907,0 1.734985,0.648006 1.620016,0.773427 1.923116,0.867493 3.062352,0.992913 5.225857,3.072804 2.581574,2.477057 2.581574,5.476699 0,1.808147 -0.888396,3.438614 -0.888396,1.661823 -2.435249,2.665188 -1.734985,1.128785 -4.880952,1.128785 -0.762975,0 -1.755888,-0.219486 -1.201947,-0.271745 -1.891759,-0.710717 z M 48.57557,55.274697 q -1.013817,-0.637555 -4.347914,-2.00673 v 10.347199 q 0.407617,0.261293 0.930203,0.397165 0.533037,0.125421 1.181044,0.125421 2.25757,0 3.240032,-0.627103 0.930202,-0.595748 1.473691,-1.620016 0.553941,-1.024268 0.553941,-2.13215 0,-2.592026 -3.030997,-4.483786 z"
             style="font-style:normal;font-variant:normal;font-weight:bold;font-stretch:normal;font-size:21.40511322px;font-family:'Comic Sans MS';-inkscape-font-specification:'Comic Sans MS Bold';stroke-width:0.25084114"
             id="path840"
             inkscape:connector-curvature="0" />
          <path
             d="m 61.556601,66.395322 q -2.49796,0 -4.086621,-1.191495 -1.755888,-1.316917 -1.755888,-3.710359 0,-2.644284 1.390078,-4.473335 1.546854,-2.027632 4.170235,-2.027632 1.818598,0 3.020545,0.585296 1.578209,0.773427 1.578209,2.403894 0,1.149689 -1.285561,2.038085 -0.585296,0.407617 -2.351636,1.191495 l -3.522228,1.557306 q 0.501683,0.543489 1.212399,0.815234 0.710717,0.271744 1.630468,0.271744 1.40053,0 2.372539,-0.574844 0.867493,-0.512134 1.390078,-0.512134 1.086979,0 1.086979,1.055623 0,1.191496 -1.745437,1.944019 -1.46324,0.627103 -3.104159,0.627103 z m -0.282196,-8.873506 q -0.97201,0 -1.661823,0.648006 -0.689813,0.648006 -1.107882,1.944019 1.181044,-0.512134 2.351636,-1.013816 1.410981,-0.637555 2.247119,-1.181044 -0.700265,-0.397165 -1.82905,-0.397165 z"
             style="font-style:normal;font-variant:normal;font-weight:bold;font-stretch:normal;font-size:21.40511322px;font-family:'Comic Sans MS';-inkscape-font-specification:'Comic Sans MS Bold';stroke-width:0.25084114"
             id="path842"
             inkscape:connector-curvature="0" />
          <path
             d="m 73.858269,65.141116 q -0.05226,0.522586 -0.428521,0.857041 -0.376261,0.334455 -0.930202,0.334455 -1.055623,0 -1.494595,-1.086979 -1.128786,-2.821963 -3.459518,-8.424082 -0.135873,-0.313552 -0.135873,-0.595748 0,-0.564393 0.449424,-0.951106 0.459876,-0.397165 1.045172,-0.397165 0.898847,0 1.285561,0.825685 0.595747,1.264658 2.320281,5.915671 0.55394,-1.181044 1.52595,-3.59539 0.292648,-0.804782 0.909299,-2.247119 0.428521,-0.836137 1.296013,-0.836137 0.585296,0 1.03472,0.386713 0.459875,0.386714 0.459875,0.961558 0,0.376262 -1.693178,4.13888 -1.379626,3.072804 -2.184408,4.713723 z"
             style="font-style:normal;font-variant:normal;font-weight:bold;font-stretch:normal;font-size:21.40511322px;font-family:'Comic Sans MS';-inkscape-font-specification:'Comic Sans MS Bold';stroke-width:0.25084114"
             id="path844"
             inkscape:connector-curvature="0" />
          <path
             d="m 83.923271,66.395322 q -2.49796,0 -4.086621,-1.191495 -1.755888,-1.316917 -1.755888,-3.710359 0,-2.644284 1.390078,-4.473335 1.546854,-2.027632 4.170234,-2.027632 1.818599,0 3.020546,0.585296 1.578209,0.773427 1.578209,2.403894 0,1.149689 -1.285561,2.038085 -0.585296,0.407617 -2.351636,1.191495 l -3.522228,1.557306 q 0.501682,0.543489 1.212399,0.815234 0.710717,0.271744 1.630468,0.271744 1.400529,0 2.372539,-0.574844 0.867492,-0.512134 1.390078,-0.512134 1.086978,0 1.086978,1.055623 0,1.191496 -1.745436,1.944019 -1.46324,0.627103 -3.104159,0.627103 z m -0.282197,-8.873506 q -0.972009,0 -1.661823,0.648006 -0.689813,0.648006 -1.107881,1.944019 1.181043,-0.512134 2.351636,-1.013816 1.410981,-0.637555 2.247118,-1.181044 -0.700265,-0.397165 -1.82905,-0.397165 z"
             style="font-style:normal;font-variant:normal;font-weight:bold;font-stretch:normal;font-size:21.40511322px;font-family:'Comic Sans MS';-inkscape-font-specification:'Comic Sans MS Bold';stroke-width:0.25084114"
             id="path846"
             inkscape:connector-curvature="0" />
          <path
             d="m 93.831498,64.378141 q 0,1.985826 -1.442336,1.985826 -0.627103,0 -1.03472,-0.397165 -0.407617,-0.397165 -0.407617,-1.024268 V 50.487811 q 0,-0.606199 0.438972,-0.992913 0.418069,-0.355358 1.03472,-0.355358 0.616651,0 1.013816,0.376262 0.397165,0.36581 0.397165,0.972009 z"
             style="font-style:normal;font-variant:normal;font-weight:bold;font-stretch:normal;font-size:21.40511322px;font-family:'Comic Sans MS';-inkscape-font-specification:'Comic Sans MS Bold';stroke-width:0.25084114"
             id="path848"
             inkscape:connector-curvature="0" />
          <path
             d="m 100.77144,66.531194 q -1.933572,0 -3.32365,-1.327367 -1.52595,-1.452789 -1.599112,-3.877587 -0.07316,-2.309829 1.264657,-4.117976 1.588661,-2.13215 4.421075,-2.13215 2.09034,0 3.32365,1.672275 1.10788,1.505047 1.10788,3.731262 0,2.424798 -1.29601,4.138879 -1.45279,1.912664 -3.89849,1.912664 z m 0.6271,-8.695827 q -1.28556,-0.01045 -2.027634,1.170592 -0.627103,0.992913 -0.627103,2.320281 0,1.254206 0.710716,1.923116 0.564391,0.533037 1.316921,0.533037 0.90929,0 1.5782,-0.616651 0.76298,-0.721168 0.81524,-1.954471 0.13587,-3.365452 -1.76634,-3.375904 z"
             style="font-style:normal;font-variant:normal;font-weight:bold;font-stretch:normal;font-size:21.40511322px;font-family:'Comic Sans MS';-inkscape-font-specification:'Comic Sans MS Bold';stroke-width:0.25084114"
             id="path850"
             inkscape:connector-curvature="0" />
          <path
             d="m 112.54007,66.531194 q -0.89885,0 -1.89176,-0.209034 l -0.0105,4.2643 q 0,0.606199 -0.40761,1.003365 -0.40762,0.397165 -1.03472,0.397165 -0.62711,0 -1.03472,-0.397165 -0.40762,-0.397166 -0.40762,-1.003365 0,-0.491231 0.0209,-3.89849 0.0209,-2.529315 0,-4.128428 -0.0314,-2.25757 -0.14632,-3.888038 -0.15678,-2.247118 -0.15678,-2.058988 0,-0.867492 0.38672,-1.484143 0.44942,-0.700265 1.2124,-0.700265 0.58529,0 0.98246,0.397165 0.39716,0.397165 0.39716,0.951106 l -0.0105,0.104517 q 0.70027,-0.397165 1.40053,-0.585296 0.71072,-0.198582 1.42143,-0.198582 2.4039,0 3.51178,2.038084 0.82569,1.536402 0.82569,3.982104 0,2.288925 -1.30647,3.793972 -1.40053,1.620016 -3.75216,1.620016 z m 0.72116,-8.643568 q -0.65845,0 -1.33782,0.313551 -0.67936,0.3031 -1.36917,0.919751 0.12542,2.153053 0.12542,4.316559 0.9302,0.303099 1.86041,0.303099 1.07652,0 1.65137,-0.762975 0.52258,-0.689813 0.52258,-1.860405 0,-1.410982 -0.12542,-1.954471 -0.3031,-1.275109 -1.32737,-1.275109 z"
             style="font-style:normal;font-variant:normal;font-weight:bold;font-stretch:normal;font-size:21.40511322px;font-family:'Comic Sans MS';-inkscape-font-specification:'Comic Sans MS Bold';stroke-width:0.25084114"
             id="path852"
             inkscape:connector-curvature="0" />
          <path
             d="m 121.87345,56.664775 q 1.57821,-1.82905 2.98919,-1.82905 1.60957,0 2.36209,1.22285 0.63756,-0.564392 1.41098,-0.846588 0.77343,-0.282197 1.67228,-0.282197 2.04853,0 2.78015,2.038085 0.14633,0.418068 0.44943,2.832415 0.29265,1.693178 0.75252,5.643926 0.0418,0.595748 -0.40762,0.982461 -0.44942,0.386714 -1.05562,0.386714 -1.20195,0 -1.41098,-1.191496 -0.18813,-1.076527 -0.38671,-3.041449 -0.20904,-2.153053 -0.34491,-3.051901 -0.2822,-1.870857 -0.72117,-1.870857 -0.24039,0 -1.09743,0.480779 -0.85704,0.480779 -1.25421,0.825685 0,1.191496 0.2822,3.428163 0.29265,2.288926 0.29265,3.428163 0,0.595747 -0.40762,0.992913 -0.40761,0.397165 -1.03472,0.397165 -0.6271,0 -1.03472,-0.397165 -0.40761,-0.397166 -0.40761,-0.992913 0,-1.191496 -0.2613,-3.501325 -0.25084,-2.320281 -0.25084,-3.511776 0,-0.66891 -0.11497,-1.066075 -1.2124,0.700265 -2.43525,2.330732 -0.0523,0.07316 -0.17768,0.219486 -0.0418,2.111247 -0.0418,3.313194 0,0.292648 -0.0209,0.79433 -0.0209,0.491231 -0.0209,0.73162 0,0.564393 -0.45988,0.888396 -0.41806,0.3031 -1.03472,0.3031 -0.88839,0 -1.20194,-0.773427 -0.21949,-0.522586 -0.21949,-1.661823 v -3.888038 q 0,-0.522586 -0.0418,-1.52595 -0.0418,-1.013817 -0.0418,-1.536402 0,-0.930203 0.33445,-1.682727 0.40762,-0.940654 1.14969,-0.940654 0.5853,0 1.04517,0.459875 0.45988,0.449424 0.45988,0.992913 0,-0.219486 -0.0941,0.898848 z"
             style="font-style:normal;font-variant:normal;font-weight:bold;font-stretch:normal;font-size:21.40511322px;font-family:'Comic Sans MS';-inkscape-font-specification:'Comic Sans MS Bold';stroke-width:0.25084114"
             id="path854"
             inkscape:connector-curvature="0" />
          <path
             d="m 141.07325,66.395322 q -2.49796,0 -4.08662,-1.191495 -1.75589,-1.316917 -1.75589,-3.710359 0,-2.644284 1.39008,-4.473335 1.54686,-2.027632 4.17024,-2.027632 1.8186,0 3.02054,0.585296 1.57821,0.773427 1.57821,2.403894 0,1.149689 -1.28556,2.038085 -0.5853,0.407617 -2.35164,1.191495 l -3.52222,1.557306 q 0.50168,0.543489 1.2124,0.815234 0.71071,0.271744 1.63046,0.271744 1.40053,0 2.37254,-0.574844 0.86749,-0.512134 1.39008,-0.512134 1.08698,0 1.08698,1.055623 0,1.191496 -1.74544,1.944019 -1.46324,0.627103 -3.10416,0.627103 z m -0.28219,-8.873506 q -0.97201,0 -1.66183,0.648006 -0.68981,0.648006 -1.10788,1.944019 1.18105,-0.512134 2.35164,-1.013816 1.41098,-0.637555 2.24712,-1.181044 -0.70027,-0.397165 -1.82905,-0.397165 z"
             style="font-style:normal;font-variant:normal;font-weight:bold;font-stretch:normal;font-size:21.40511322px;font-family:'Comic Sans MS';-inkscape-font-specification:'Comic Sans MS Bold';stroke-width:0.25084114"
             id="path856"
             inkscape:connector-curvature="0" />
          <path
             d="m 155.9983,66.656615 q -1.28556,0 -1.43188,-1.264658 -0.14632,-1.076526 -0.29265,-2.163505 -0.15677,-1.149688 -0.15677,-2.163505 0,-0.271744 0.0314,-0.930202 0.0418,-0.658459 0.0418,-0.930203 0,-0.07316 0.0209,-0.36581 0.0209,-0.3031 0.0209,-0.491231 0,-0.867492 -0.44942,-0.867492 -0.96156,0 -1.89176,1.128785 -0.91975,1.118334 -1.44234,2.842867 -0.0209,0.344906 -0.0941,0.919751 -0.0627,0.470327 -0.0627,0.919751 0,0.292648 0.0627,0.888395 0.0732,0.585296 0.0732,0.877944 0,0.595748 -0.41807,0.982462 -0.40762,0.397165 -1.03472,0.397165 -0.6271,0 -1.03472,-0.397165 -0.40762,-0.386714 -0.40762,-0.982462 0,-0.292648 -0.0627,-0.877944 -0.0627,-0.595747 -0.0627,-0.888395 0,-1.003365 0.14633,-2.790608 0.14632,-1.787244 0.14632,-2.790608 0,-0.313552 -0.0418,-0.930203 -0.0314,-0.627103 -0.0314,-0.930203 0,-0.585296 0.41807,-0.961558 0.42852,-0.386713 1.04517,-0.386713 1.36918,0 1.46324,1.640919 l 0.0104,0.114969 q 1.52595,-1.536402 3.21913,-1.536402 1.97537,0 2.7279,1.651371 0.50168,1.107882 0.50168,3.313194 v 0.742072 q -0.0105,0.480778 -0.0105,0.679361 0,0.815234 0.21949,2.100795 0.22993,1.285561 0.22993,2.090343 0,0.585296 -0.41807,0.972009 -0.41806,0.386714 -1.03472,0.386714 z"
             style="font-style:normal;font-variant:normal;font-weight:bold;font-stretch:normal;font-size:21.40511322px;font-family:'Comic Sans MS';-inkscape-font-specification:'Comic Sans MS Bold';stroke-width:0.25084114"
             id="path858"
             inkscape:connector-curvature="0" />
          <path
             d="m 166.3455,57.500912 q -0.21948,0 -0.52258,-0.01045 -0.29265,-0.0209 -0.51214,-0.0209 -0.42852,0 -0.99291,0.08361 0.18813,4.222493 0.18813,5.518506 0,0.135872 0.0104,0.512134 0.0105,0.36581 0.0105,0.595747 0,2.403895 -1.51549,2.403895 -0.57485,0 -0.99292,-0.355358 -0.45987,-0.376262 -0.45987,-0.940655 0,-0.376262 0.0314,-1.128785 0.0314,-0.752524 0.0314,-1.128785 0,-1.264658 -0.18813,-5.413989 -0.64801,-0.03136 -1.96493,-0.167227 -1.30646,-0.146324 -1.30646,-1.358723 0,-0.585296 0.39716,-0.992913 0.39717,-0.407617 1.02427,-0.407617 0.38672,0 1.77679,0.12542 -0.0104,-0.334455 -0.0522,-1.107881 -0.0418,-0.66891 -0.0418,-1.03472 0,-0.585296 0.42852,-0.97201 0.42852,-0.386713 1.03472,-0.386713 1.54685,0 1.54685,2.602477 l -0.0209,0.85704 q 0.64801,-0.09407 1.05562,-0.09407 1.20195,0 1.64092,0.156776 0.83614,0.292648 0.83614,1.275109 0,0.595748 -0.40762,0.992913 -0.40761,0.397165 -1.03472,0.397165 z"
             style="font-style:normal;font-variant:normal;font-weight:bold;font-stretch:normal;font-size:21.40511322px;font-family:'Comic Sans MS';-inkscape-font-specification:'Comic Sans MS Bold';stroke-width:0.25084114"
             id="path860"
             inkscape:connector-curvature="0" />
        </g>
      </g>
      <g
         id="g5031">
        <g
           aria-label="&lt;JW&gt;"
           style="font-style:normal;font-weight:normal;font-size:50.79999924px;line-height:1.25;font-family:sans-serif;letter-spacing:0px;word-spacing:0px;fill:#f6f5f2;fill-opacity:1;stroke:none;stroke-width:0.26458332"
           id="text3723"
           transform="translate(6.879167)">
          <path
             d="m 53.316497,27.219039 q -2.108398,2.058789 -6.523632,5.953125 1.860351,1.810742 5.779492,5.233789 1.240234,0.992187 1.240234,2.232421 0,1.190625 -0.967383,2.108399 -0.942578,0.892969 -2.257226,0.892969 -1.389063,0 -3.472656,-1.761133 l -2.877344,-2.778125 q -2.306836,-2.207617 -4.415234,-2.951758 -2.505274,-0.868164 -2.505274,-2.75332 0,-1.711524 2.232422,-2.678906 2.232422,-0.992188 4.960938,-3.621485 3.720703,-3.621484 4.489648,-4.191992 1.016992,-0.768945 2.133203,-0.768945 1.314648,0 2.257227,0.892969 0.967382,0.892968 0.967382,2.083593 0,1.165821 -1.041797,2.108399 z"
             style="font-style:normal;font-variant:normal;font-weight:bold;font-stretch:normal;font-family:'Comic Sans MS';-inkscape-font-specification:'Comic Sans MS Bold';fill:#f6f5f2;fill-opacity:1;stroke-width:0.26458332"
             id="path863"
             inkscape:connector-curvature="0" />
          <path
             d="m 92.111027,17.991695 q -0.446484,0 -1.413867,-0.07441 -0.967383,-0.09922 -1.562695,-0.09922 h -1.934766 q -0.0248,-0.421679 -0.0248,1.761133 0,17.760156 -2.505274,25.871289 -1.835547,5.977929 -6.672461,5.977929 -4.613671,0 -9.128124,-3.175 -5.109766,-3.54707 -5.109766,-8.334374 0,-3.869532 3.497461,-3.869532 3.497461,0 3.497461,3.819922 0,1.463477 2.505273,3.150195 2.530078,1.661914 4.737695,1.661914 0.892969,0 1.289844,-3.299023 0.09922,-0.79375 0.545703,-7.714258 0.372071,-5.655468 0.372071,-14.089062 0,-0.347266 -0.07441,-1.612305 l -0.570508,0.02481 q -1.091406,0.04961 -2.926953,-0.02481 -2.207617,-0.09922 -2.926953,-0.09922 -1.463477,0 -2.480469,-0.892969 -1.091406,-0.967383 -1.091406,-2.505273 0,-3.373438 4.440039,-3.373438 0.843359,0 2.505273,0.07441 1.661914,0.04961 2.480469,0.04961 1.562695,0 4.663281,-0.173633 3.125391,-0.173633 4.688086,-0.173633 6.647656,0 6.647656,3.695898 0,1.289844 -0.892969,2.306836 -1.016992,1.116211 -2.554883,1.116211 z"
             style="font-style:normal;font-variant:normal;font-weight:bold;font-stretch:normal;font-family:'Comic Sans MS';-inkscape-font-specification:'Comic Sans MS Bold';fill:#f6f5f2;fill-opacity:1;stroke-width:0.26458332"
             id="path865"
             inkscape:connector-curvature="0" />
          <path
             d="m 135.51089,17.156604 q -0.42168,1.016992 -0.99219,2.505274 -0.42168,1.438672 -1.36426,4.266406 -1.41386,3.646289 -4.48965,10.616406 -3.15019,7.094141 -4.51445,10.591601 -1.01699,2.604493 -1.90996,4.167188 -1.16582,2.058789 -3.54707,2.058789 -1.41387,0 -2.55488,-0.768945 -1.33946,-0.892969 -1.43867,-2.356446 -1.14102,-2.852539 -1.43868,-4.663281 -1.0914,-5.308203 -3.02617,-15.949414 -1.6123,4.985742 -3.47265,8.954492 -2.77813,5.953125 -3.64629,9.351367 0.22324,0.545703 0.22324,1.165821 0,1.53789 -1.36426,2.505273 -1.19062,0.818555 -2.629294,0.818555 -1.810731,0 -3.001345,-0.917774 Q 95.05447,48.484924 95.00486,46.723791 L 94.235923,43.821643 Q 93.417369,39.952112 91.557028,32.262659 89.91993,26.383948 86.075213,15.519495 q -0.223242,-0.620117 -0.223242,-1.240234 0,-1.488282 1.141015,-2.356446 1.016992,-0.79375 2.455654,-0.79375 1.885151,0 3.001355,1.5875 0.620117,0.868164 1.413861,3.150196 2.430848,6.994921 5.4818,20.389452 1.984374,-4.836914 4.043164,-11.410156 1.66191,-5.357812 2.70371,-7.615039 2.48047,-5.407421 5.06016,-5.407421 2.43085,0 3.54707,2.654101 0.5457,1.265039 1.0666,4.588867 0.14883,1.016992 0.64492,4.985742 0.5209,4.266407 3.12539,15.527734 2.6293,-6.151562 7.06934,-17.735351 0.27285,-0.694531 1.28984,-4.564062 0.71934,-2.778125 1.81074,-4.39043 1.19063,-1.736328 3.175,-1.736328 1.51309,0 2.50527,0.942578 0.99219,0.917774 0.99219,2.38125 0,0.520899 -0.86816,2.678906 z"
             style="font-style:normal;font-variant:normal;font-weight:bold;font-stretch:normal;font-family:'Comic Sans MS';-inkscape-font-specification:'Comic Sans MS Bold';fill:#f6f5f2;fill-opacity:1;stroke-width:0.26458332"
             id="path867"
             inkscape:connector-curvature="0" />
          <path
             d="m 156.90903,34.313179 q -5.97793,5.13457 -12.50156,8.979297 -0.91778,0.545703 -1.83555,0.545703 -1.33945,0 -2.28203,-0.917773 -0.91778,-0.917774 -0.91778,-2.108399 0,-1.364258 1.33946,-2.33164 2.90215,-1.959571 8.60722,-6.002735 -2.85254,-2.058789 -5.48183,-4.564062 -3.32383,-3.125391 -3.32383,-4.39043 0,-1.215429 0.99219,-2.083593 1.01699,-0.892969 2.30683,-0.892969 1.33946,0 2.40606,1.091406 5.55625,5.705078 9.94668,7.813477 2.00918,0.967382 2.00918,2.554882 0,1.21543 -1.26504,2.306836 z"
             style="font-style:normal;font-variant:normal;font-weight:bold;font-stretch:normal;font-family:'Comic Sans MS';-inkscape-font-specification:'Comic Sans MS Bold';fill:#f6f5f2;fill-opacity:1;stroke-width:0.26458332"
             id="path869"
             inkscape:connector-curvature="0" />
        </g>
        <g
           aria-label="Development"
           transform="scale(1.0280972,0.97267067)"
           style="font-style:normal;font-weight:normal;font-size:13.37819481px;line-height:1.25;font-family:sans-serif;letter-spacing:0px;word-spacing:0px;fill:#f6f5f2;fill-opacity:1;stroke:none;stroke-width:0.25084114"
           id="text3727">
          <path
             d="m 42.187,65.475023 q -0.616651,-0.01045 -1.03472,-0.418068 -0.418068,-0.418069 -0.418068,-1.003365 0,-1.045171 0.09407,-3.135514 0.104517,-2.090344 0.104517,-3.135515 0,-1.160141 -0.05226,-3.480421 -0.04181,-2.320281 -0.04181,-3.480422 0,-0.574844 0.553941,-1.139237 0.553941,-0.574844 1.181044,-0.574844 0.344906,0 1.734984,0.648006 1.620016,0.773427 1.923116,0.867493 3.062353,0.992913 5.225858,3.072804 2.581573,2.477057 2.581573,5.476699 0,1.808147 -0.888395,3.438614 -0.888396,1.661823 -2.43525,2.665188 -1.734985,1.128785 -4.880951,1.128785 -0.762975,0 -1.755888,-0.219486 Q 42.876813,65.913995 42.187,65.475023 Z M 48.060864,54.73066 q -1.013816,-0.637555 -4.347913,-2.006729 v 10.347198 q 0.407617,0.261293 0.930202,0.397165 0.533038,0.125421 1.181044,0.125421 2.257571,0 3.240032,-0.627103 0.930203,-0.595748 1.473692,-1.620016 0.553941,-1.024268 0.553941,-2.13215 0,-2.592026 -3.030998,-4.483786 z"
             style="font-style:normal;font-variant:normal;font-weight:bold;font-stretch:normal;font-size:21.40511322px;font-family:'Comic Sans MS';-inkscape-font-specification:'Comic Sans MS Bold';fill:#f6f5f2;fill-opacity:1;stroke-width:0.25084114"
             id="path872"
             inkscape:connector-curvature="0" />
          <path
             d="m 61.041895,65.851285 q -2.49796,0 -4.086621,-1.191495 -1.755888,-1.316917 -1.755888,-3.710359 0,-2.644284 1.390078,-4.473335 1.546854,-2.027632 4.170235,-2.027632 1.818598,0 3.020546,0.585296 1.578209,0.773427 1.578209,2.403894 0,1.149689 -1.285561,2.038085 -0.585296,0.407617 -2.351636,1.191495 l -3.522228,1.557306 q 0.501682,0.543489 1.212399,0.815234 0.710716,0.271744 1.630467,0.271744 1.40053,0 2.37254,-0.574844 0.867492,-0.512134 1.390078,-0.512134 1.086978,0 1.086978,1.055623 0,1.191496 -1.745436,1.944019 -1.46324,0.627103 -3.10416,0.627103 z m -0.282196,-8.873506 q -0.97201,0 -1.661823,0.648006 -0.689813,0.648007 -1.107882,1.944019 1.181044,-0.512134 2.351636,-1.013816 1.410982,-0.637555 2.247119,-1.181044 -0.700265,-0.397165 -1.82905,-0.397165 z"
             style="font-style:normal;font-variant:normal;font-weight:bold;font-stretch:normal;font-size:21.40511322px;font-family:'Comic Sans MS';-inkscape-font-specification:'Comic Sans MS Bold';fill:#f6f5f2;fill-opacity:1;stroke-width:0.25084114"
             id="path874"
             inkscape:connector-curvature="0" />
          <path
             d="m 73.343563,64.597079 q -0.05226,0.522586 -0.42852,0.857041 -0.376262,0.334455 -0.930203,0.334455 -1.055623,0 -1.494595,-1.086979 -1.128785,-2.821963 -3.459518,-8.424082 -0.135872,-0.313552 -0.135872,-0.595748 0,-0.564393 0.449423,-0.951106 0.459876,-0.397165 1.045172,-0.397165 0.898848,0 1.285561,0.825685 0.595748,1.264658 2.320281,5.915671 0.553941,-1.181044 1.52595,-3.59539 0.292648,-0.804782 0.9093,-2.247119 0.42852,-0.836137 1.296012,-0.836137 0.585296,0 1.03472,0.386714 0.459876,0.386713 0.459876,0.961557 0,0.376262 -1.693178,4.13888 -1.379627,3.072804 -2.184409,4.713723 z"
             style="font-style:normal;font-variant:normal;font-weight:bold;font-stretch:normal;font-size:21.40511322px;font-family:'Comic Sans MS';-inkscape-font-specification:'Comic Sans MS Bold';fill:#f6f5f2;fill-opacity:1;stroke-width:0.25084114"
             id="path876"
             inkscape:connector-curvature="0" />
          <path
             d="m 83.408565,65.851285 q -2.49796,0 -4.086621,-1.191495 -1.755888,-1.316917 -1.755888,-3.710359 0,-2.644284 1.390078,-4.473335 1.546854,-2.027632 4.170235,-2.027632 1.818598,0 3.020545,0.585296 1.578209,0.773427 1.578209,2.403894 0,1.149689 -1.285561,2.038085 -0.585296,0.407617 -2.351636,1.191495 l -3.522228,1.557306 q 0.501683,0.543489 1.212399,0.815234 0.710717,0.271744 1.630468,0.271744 1.40053,0 2.372539,-0.574844 0.867493,-0.512134 1.390078,-0.512134 1.086979,0 1.086979,1.055623 0,1.191496 -1.745437,1.944019 -1.46324,0.627103 -3.104159,0.627103 z m -0.282196,-8.873506 q -0.97201,0 -1.661823,0.648006 -0.689813,0.648007 -1.107882,1.944019 1.181044,-0.512134 2.351636,-1.013816 1.410981,-0.637555 2.247119,-1.181044 -0.700265,-0.397165 -1.82905,-0.397165 z"
             style="font-style:normal;font-variant:normal;font-weight:bold;font-stretch:normal;font-size:21.40511322px;font-family:'Comic Sans MS';-inkscape-font-specification:'Comic Sans MS Bold';fill:#f6f5f2;fill-opacity:1;stroke-width:0.25084114"
             id="path878"
             inkscape:connector-curvature="0" />
          <path
             d="m 93.316793,63.834104 q 0,1.985826 -1.442337,1.985826 -0.627103,0 -1.03472,-0.397165 Q 90.432119,65.0256 90.432119,64.398497 V 49.943774 q 0,-0.606199 0.438972,-0.992913 0.418069,-0.355358 1.03472,-0.355358 0.616651,0 1.013817,0.376262 0.397165,0.36581 0.397165,0.972009 z"
             style="font-style:normal;font-variant:normal;font-weight:bold;font-stretch:normal;font-size:21.40511322px;font-family:'Comic Sans MS';-inkscape-font-specification:'Comic Sans MS Bold';fill:#f6f5f2;fill-opacity:1;stroke-width:0.25084114"
             id="path880"
             inkscape:connector-curvature="0" />
          <path
             d="m 100.25673,65.987157 q -1.933567,0 -3.323646,-1.327367 -1.52595,-1.452789 -1.599112,-3.877587 -0.07316,-2.309829 1.264658,-4.117976 1.58866,-2.13215 4.42108,-2.13215 2.09034,0 3.32364,1.672275 1.10788,1.505047 1.10788,3.731262 0,2.424798 -1.29601,4.13888 -1.45279,1.912663 -3.89849,1.912663 z m 0.6271,-8.695827 q -1.285558,-0.01045 -2.02763,1.170592 -0.627103,0.992913 -0.627103,2.320281 0,1.254206 0.710717,1.923116 0.564392,0.533037 1.316916,0.533037 0.9093,0 1.57821,-0.616651 0.76297,-0.721168 0.81523,-1.954471 0.13588,-3.365452 -1.76634,-3.375904 z"
             style="font-style:normal;font-variant:normal;font-weight:bold;font-stretch:normal;font-size:21.40511322px;font-family:'Comic Sans MS';-inkscape-font-specification:'Comic Sans MS Bold';fill:#f6f5f2;fill-opacity:1;stroke-width:0.25084114"
             id="path882"
             inkscape:connector-curvature="0" />
          <path
             d="m 112.02536,65.987157 q -0.89885,0 -1.89176,-0.209034 l -0.0105,4.2643 q 0,0.6062 -0.40762,1.003365 -0.40762,0.397165 -1.03472,0.397165 -0.6271,0 -1.03472,-0.397165 -0.40762,-0.397165 -0.40762,-1.003365 0,-0.491231 0.0209,-3.89849 0.0209,-2.529315 0,-4.128427 -0.0314,-2.257571 -0.14633,-3.888039 -0.15677,-2.247118 -0.15677,-2.058987 0,-0.867493 0.38671,-1.484144 0.44943,-0.700265 1.2124,-0.700265 0.5853,0 0.98246,0.397165 0.39717,0.397165 0.39717,0.951106 l -0.0104,0.104517 q 0.70026,-0.397165 1.40052,-0.585296 0.71072,-0.198582 1.42144,-0.198582 2.40389,0 3.51177,2.038084 0.82569,1.536402 0.82569,3.982104 0,2.288926 -1.30646,3.793973 -1.40053,1.620015 -3.75217,1.620015 z m 0.72117,-8.643568 q -0.65846,0 -1.33782,0.313551 -0.67936,0.3031 -1.36918,0.919751 0.12542,2.153054 0.12542,4.316559 0.93021,0.303099 1.86041,0.303099 1.07653,0 1.65137,-0.762975 0.52259,-0.689813 0.52259,-1.860405 0,-1.410982 -0.12542,-1.954471 -0.3031,-1.275109 -1.32737,-1.275109 z"
             style="font-style:normal;font-variant:normal;font-weight:bold;font-stretch:normal;font-size:21.40511322px;font-family:'Comic Sans MS';-inkscape-font-specification:'Comic Sans MS Bold';fill:#f6f5f2;fill-opacity:1;stroke-width:0.25084114"
             id="path884"
             inkscape:connector-curvature="0" />
          <path
             d="m 121.35875,56.120738 q 1.57821,-1.82905 2.98919,-1.82905 1.60956,0 2.36209,1.222851 0.63755,-0.564393 1.41098,-0.846589 0.77342,-0.282197 1.67227,-0.282197 2.04854,0 2.78016,2.038085 0.14632,0.418068 0.44942,2.832415 0.29265,1.693178 0.75253,5.643926 0.0418,0.595748 -0.40762,0.982461 -0.44943,0.386714 -1.05562,0.386714 -1.20195,0 -1.41099,-1.191496 -0.18813,-1.076526 -0.38671,-3.041449 -0.20903,-2.153053 -0.34491,-3.051901 -0.28219,-1.870857 -0.72116,-1.870857 -0.24039,0 -1.09743,0.480779 -0.85705,0.480779 -1.25421,0.825686 0,1.191495 0.2822,3.428162 0.29264,2.288926 0.29264,3.428163 0,0.595748 -0.40761,0.992913 -0.40762,0.397165 -1.03472,0.397165 -0.62711,0 -1.03472,-0.397165 -0.40762,-0.397165 -0.40762,-0.992913 0,-1.191496 -0.26129,-3.501325 -0.25084,-2.320281 -0.25084,-3.511776 0,-0.66891 -0.11497,-1.066075 -1.2124,0.700265 -2.43525,2.330732 -0.0523,0.07316 -0.17768,0.219486 -0.0418,2.111247 -0.0418,3.313194 0,0.292648 -0.0209,0.794331 -0.0209,0.49123 -0.0209,0.73162 0,0.564392 -0.45987,0.888395 -0.41807,0.3031 -1.03472,0.3031 -0.8884,0 -1.20195,-0.773427 -0.21948,-0.522586 -0.21948,-1.661823 v -3.888038 q 0,-0.522585 -0.0418,-1.52595 -0.0418,-1.013817 -0.0418,-1.536402 0,-0.930203 0.33446,-1.682726 0.40761,-0.940655 1.14969,-0.940655 0.58529,0 1.04517,0.459876 0.45987,0.449423 0.45987,0.992913 0,-0.219486 -0.0941,0.898847 z"
             style="font-style:normal;font-variant:normal;font-weight:bold;font-stretch:normal;font-size:21.40511322px;font-family:'Comic Sans MS';-inkscape-font-specification:'Comic Sans MS Bold';fill:#f6f5f2;fill-opacity:1;stroke-width:0.25084114"
             id="path886"
             inkscape:connector-curvature="0" />
          <path
             d="m 140.55855,65.851285 q -2.49796,0 -4.08662,-1.191495 -1.75589,-1.316917 -1.75589,-3.710359 0,-2.644284 1.39008,-4.473335 1.54685,-2.027632 4.17023,-2.027632 1.8186,0 3.02055,0.585296 1.57821,0.773427 1.57821,2.403894 0,1.149689 -1.28557,2.038085 -0.58529,0.407617 -2.35163,1.191495 l -3.52223,1.557306 q 0.50168,0.543489 1.2124,0.815234 0.71072,0.271744 1.63047,0.271744 1.40053,0 2.37254,-0.574844 0.86749,-0.512134 1.39007,-0.512134 1.08698,0 1.08698,1.055623 0,1.191496 -1.74543,1.944019 -1.46324,0.627103 -3.10416,0.627103 z m -0.2822,-8.873506 q -0.97201,0 -1.66182,0.648006 -0.68981,0.648007 -1.10788,1.944019 1.18104,-0.512134 2.35163,-1.013816 1.41098,-0.637555 2.24712,-1.181044 -0.70026,-0.397165 -1.82905,-0.397165 z"
             style="font-style:normal;font-variant:normal;font-weight:bold;font-stretch:normal;font-size:21.40511322px;font-family:'Comic Sans MS';-inkscape-font-specification:'Comic Sans MS Bold';fill:#f6f5f2;fill-opacity:1;stroke-width:0.25084114"
             id="path888"
             inkscape:connector-curvature="0" />
          <path
             d="m 155.4836,66.112578 q -1.28556,0 -1.43189,-1.264657 -0.14632,-1.076527 -0.29264,-2.163506 -0.15678,-1.149688 -0.15678,-2.163505 0,-0.271744 0.0314,-0.930202 0.0418,-0.658458 0.0418,-0.930203 0,-0.07316 0.0209,-0.36581 0.0209,-0.3031 0.0209,-0.491231 0,-0.867492 -0.44942,-0.867492 -0.96156,0 -1.89177,1.128785 -0.91975,1.118334 -1.44233,2.842867 -0.0209,0.344906 -0.0941,0.919751 -0.0627,0.470327 -0.0627,0.919751 0,0.292648 0.0627,0.888396 0.0732,0.585296 0.0732,0.877944 0,0.595747 -0.41806,0.982461 -0.40762,0.397165 -1.03472,0.397165 -0.62711,0 -1.03472,-0.397165 -0.40762,-0.386714 -0.40762,-0.982461 0,-0.292648 -0.0627,-0.877944 -0.0627,-0.595748 -0.0627,-0.888396 0,-1.003365 0.14632,-2.790608 0.14633,-1.787244 0.14633,-2.790608 0,-0.313552 -0.0418,-0.930203 -0.0314,-0.627103 -0.0314,-0.930203 0,-0.585296 0.41807,-0.961558 0.42852,-0.386713 1.04517,-0.386713 1.36918,0 1.46324,1.640919 l 0.0105,0.114969 q 1.52595,-1.536402 3.21913,-1.536402 1.97537,0 2.72789,1.651371 0.50169,1.107882 0.50169,3.313194 v 0.742072 q -0.0105,0.480779 -0.0105,0.679361 0,0.815234 0.21949,2.100795 0.22994,1.285561 0.22994,2.090343 0,0.585296 -0.41807,0.97201 -0.41807,0.386713 -1.03472,0.386713 z"
             style="font-style:normal;font-variant:normal;font-weight:bold;font-stretch:normal;font-size:21.40511322px;font-family:'Comic Sans MS';-inkscape-font-specification:'Comic Sans MS Bold';fill:#f6f5f2;fill-opacity:1;stroke-width:0.25084114"
             id="path890"
             inkscape:connector-curvature="0" />
          <path
             d="m 165.8308,56.956875 q -0.21949,0 -0.52259,-0.01045 -0.29265,-0.0209 -0.51213,-0.0209 -0.42852,0 -0.99292,0.08361 0.18814,4.222493 0.18814,5.518506 0,0.135872 0.0104,0.512134 0.0105,0.36581 0.0105,0.595748 0,2.403894 -1.5155,2.403894 -0.57484,0 -0.99291,-0.355358 -0.45988,-0.376262 -0.45988,-0.940655 0,-0.376261 0.0314,-1.128785 0.0314,-0.752523 0.0314,-1.128785 0,-1.264658 -0.18813,-5.413989 -0.64801,-0.03135 -1.96492,-0.167227 -1.30647,-0.146324 -1.30647,-1.358723 0,-0.585296 0.39717,-0.992913 0.39716,-0.407617 1.02427,-0.407617 0.38671,0 1.77679,0.12542 -0.0104,-0.334454 -0.0523,-1.107881 -0.0418,-0.66891 -0.0418,-1.03472 0,-0.585296 0.42852,-0.97201 0.42852,-0.386713 1.03472,-0.386713 1.54686,0 1.54686,2.602477 l -0.0209,0.857041 q 0.64801,-0.09407 1.05563,-0.09407 1.20194,0 1.64092,0.156776 0.83613,0.292648 0.83613,1.275109 0,0.595748 -0.40761,0.992913 -0.40762,0.397165 -1.03472,0.397165 z"
             style="font-style:normal;font-variant:normal;font-weight:bold;font-stretch:normal;font-size:21.40511322px;font-family:'Comic Sans MS';-inkscape-font-specification:'Comic Sans MS Bold';fill:#f6f5f2;fill-opacity:1;stroke-width:0.25084114"
             id="path892"
             inkscape:connector-curvature="0" />
        </g>
      </g>
    </g>
  </g>
</svg>
